<svg version="1" xmlns="http://www.w3.org/2000/svg" width="1333.333" height="1333.333" viewBox="0 0 1000.000000 1000.000000"><path d="M364.5 89.8c-.4.5-1.1.6-12 1.7-3.3.3-6.9.8-8 1-1.1.2-3.7.7-5.7 1-2.1.2-5.7.9-8 1.4-2.4.6-5.6 1.2-7.3 1.5-1.6.3-6.1 1.5-10 2.6-3.8 1.1-7.7 2.2-8.5 2.5-24.2 6.6-61 25.9-83.4 43.7-29.3 23.2-56.6 56-70.7 84.8l-3.4 7-5.5-.6c-7.9-.8-20-4.2-25.6-7.3-4.6-2.5-5-3.1-10.8-16.1-16.3-36.1-34.7-65.6-58.8-93.7C30.7 100.5 17.9 91 10.5 92.4c-5.1 1-9.5 5.3-9.9 9.7-.4 3.7 1.6 9.9 3.2 9.9 1.7 0 6.9 11.3 13.6 29.3 12.2 32.4 20.9 62.5 27.7 95.2 3.7 17.6 3.3 16.3 6 22.6 9.7 23.1 35.2 44.5 65.1 54.4 7.6 2.6 7.6 2.6 7.1 5.8-.2 1.8-.7 4.3-1.1 5.7-.3 1.4-.8 132.4-.9 291.2L121 905h125.5V663.9l4.5-2c2.5-1 5.2-2.3 6-2.8.8-.6 4.4-2.4 8-4.2 10.1-5 23.7-13.7 27.5-17.7 8.1-8.2 12.1-17 12.9-28.2.2-3 .4-5.6.5-5.8.1-.1.9.2 1.9.7 1.1.6 3.1 1.2 4.6 1.5 1.5.3 5.1 1.2 8 2 5.9 1.7 25.4 5.2 35.6 6.4 14 1.5 54.4.8 65-1.3 1.3-.3 4.2-.7 6.5-1.1 3.8-.5 9.5-1.6 17.5-3.4 15.8-3.3 40.5-12.6 59.1-22.1 10.4-5.3 32.2-19 38.4-24.1 1.1-.9 5.8-4.8 10.5-8.7 7.5-6.1 26.8-25.3 31-30.7.8-1 3.7-4.6 6.3-7.8 6.3-7.7 18.3-25.9 23.9-36.1 13.6-24.8 25.4-59.6 28.9-85.2.5-4.3 1.2-8.9 1.4-10.3 1.7-10.3 2.2-35.1 1.1-48.5-.8-9.6-2.5-23.4-3.2-25.6-.3-1 2.4-3.4 8.8-7.7 14.2-9.3 23-18.6 30.2-31.5 4.6-8.2 5.9-12.2 10-31.7 7.1-33 15.7-62.3 27.8-94.5 6.9-18.2 10-24.9 13.3-28.5 3.2-3.3 3.8-7.6 1.8-11.7-4.1-8.8-15.1-8.6-25 .3-1.7 1.6-4.2 3.8-5.5 5C690.6 120.5 668 150 653 175c-7.2 12-18.8 34.5-24.4 47.1-2.7 6-4.6 9.1-6.6 10.2-1.5 1-3.1 1.7-3.4 1.7-.3 0-1.7-2.1-3.2-4.8-18.3-32.1-36.2-54.4-60.9-75.8-9.1-7.9-20.2-16.4-21.4-16.4-.5 0-1.1-.3-1.3-.8-.1-.4-3.4-2.7-7.3-5.1-3.8-2.4-8.1-5.2-9.5-6.1-1.4-.9-8.6-4.7-16-8.3-21.7-10.6-39.9-16.8-66-22.3-5.7-1.2-8-1.6-19.5-3-2.7-.3-6.8-.8-9-1.1-5.1-.7-39.4-1.1-40-.5zM46.6 149.5c3.3 4.4 8.8 12.3 12.2 17.5 3.4 5.2 6.6 10 7 10.6 5 7.1 18.6 33.6 24.6 48 3.6 8.4 5.6 11.8 8.9 14.8 4.4 4 12.9 8.5 20.7 10.7 2.5.7 4.7 1.3 5 1.4.3.1 3.3.7 6.8 1.5 3.4.7 6.2 1.4 6.2 1.6 0 .2-2.2 7.7-4.9 16.6-2.7 9-5.2 18.2-5.6 20.5-.4 2.4-.9 4.3-1.2 4.3-1.4 0-14.8-5.2-19.5-7.6-12-6.1-26.1-17.2-32.1-25.4-5.8-7.9-9.2-17.1-12.2-33-1.3-6.8-1.8-9.1-3.6-16.6-1.1-4.5-2.1-9-2.3-10-2.1-10.2-13.4-47.7-16.6-54.9-1.2-2.7-5-13.5-5-14.1 0-.8 5.2 5.5 11.6 14.1zm655-11.3c-2.4 5.9-9.3 26-13 38.3-2 6.6-4.1 13.3-4.6 15-1.1 3.8-7.7 30.2-8.3 33.5-3.3 17.7-5.2 26.1-6.9 29.9-1.9 4.6-8 14.1-12.1 18.7-6.5 7.5-24 18.8-37.7 24.2-7.9 3.2-10.9 4.3-12.5 4.8-14.6 4.3-26.7 7.3-36.5 8.9-1.9.3-4.6.7-6 1-6.7 1.2-22.2 3.2-31.5 4.1-23.2 2-29.6 2.3-59.5 3-15.1.3-30.9.7-35 .8-4.1.1-8.2-.1-9.2-.6-7.2-3.5-6.9-40.3.5-55.7l1.2-2.6 24 .2c86.1.8 108.4.6 124.5-1.2 2.5-.3 6.6-.7 9.1-1 13.9-1.3 33.3-6.9 41.9-12 7.1-4.3 9.4-6.8 11.8-13 8.8-22.4 24.3-50.7 40.5-74 9.1-13.1 18.9-25.4 20.4-25.5.1 0-.4 1.5-1.1 3.2zM262.5 361.5c5 10.5 5.5 11 11 11.9 8.7 1.4 16.1 2.4 18.4 2.5.7.1-2.8 4.1-7.8 8.9-8.3 8-9.2 9.1-8.7 11.8.4 1.6 1.1 5.8 1.7 9.4.6 3.6 1.3 7.7 1.6 9.2.2 1.6.1 2.8-.3 2.8s-5.3-2.5-10.9-5.5c-11.7-6.3-9.6-6.4-24.4 1.5-7.1 3.9-9.7 4.8-8.7 3.2.3-.5.8-2.3 1.1-4 .6-3.8 1.4-8.6 2.1-12.7.3-1.7.7-3.8 1-4.7.4-1.2-2.2-4.4-8.7-10.7l-9.3-8.9 5-.7c2.7-.4 6-.9 7.4-1.1 1.4-.3 4.5-.7 6.9-1 2.5-.2 4.9-.9 5.5-1.3.6-.5 3.3-5.5 6.1-11 2.7-5.6 5.2-10.1 5.5-10.1.3 0 2.8 4.7 5.5 10.5zm12.2 222c15.5 7.4 19 29.4 6.7 41.9-8.2 8.2-43.2 26.2-68.3 35-5.7 2-10.5 3.5-10.6 3.4-.2-.2 2.9-5 6.7-10.8 7.1-10.6 20.8-37.7 26.7-52.6 1.8-4.5 4.1-9.1 5.1-10.2 9.1-9.7 21.8-12.3 33.7-6.7z"/><path d="M701 262.4c0 .2 1.3 5.9 2.9 12.7 1.7 6.8 3.3 14 3.6 15.9.3 1.9.8 4.2 1 5 .2.8.7 3.9 1 6.9.4 3 .8 6.3 1 7.3 2.9 14.8 3.4 57.1 1 76.3-2.4 18.8-2.7 20.9-5 32-8.8 42.7-25 81.2-49 117-9.9 14.6-10.2 15.1-22.8 30.1-30.7 37-73.1 68.7-117.8 88.2-9.8 4.3-25.3 10.5-26.9 10.7-.8.1-15.3 4.6-18 5.6-3.2 1.1-27.2 6.5-32.5 7.3-2.2.3-5.1.8-6.5 1-5.4 1-17.2 2.2-29 3.1-8.5.6-28.2.6-39.2-.1l-8.8-.5-.1 2.8c0 1.5-.1 53-.2 114.4l-.2 111.6 68.8-.1 68.7-.1.5-9c2-42.6 35.9-78.1 78.4-82.2 8.6-.8 9.2-.8 18.1 0 13.6 1.3 30.6 7.8 41.6 15.9 10.9 7.9 23.3 22.6 27.7 32.8.9 1.9 2.4 5.5 3.5 8s2.2 6.1 2.6 8c.3 1.9.8 4.6 1.1 6 .8 3.6 1.4 10.7 1.5 16.1v4.7h68.5c62.5-.1 68.5-.2 68.6-1.7.1-2.1.1-639.8 0-643.4l-.1-2.7h-52c-28.6 0-52 .2-52 .4zM855.9 268.2c0 .7-.1 19-.1 40.6l-.1 39.3 5.9 3.5c9.8 5.9 15.9 10.8 25.4 20.5 7.5 7.6 7.9 8.1 14.3 17 9.4 13.2 19.1 36.5 21.1 50.9.3 2.5.9 6.7 1.3 9.5 2.3 16.5-.2 38.6-6.4 56.5-9.3 27.4-28.4 51.5-53.7 67.9l-7.8 5.1v39.2c.1 21.6.1 39.8.1 40.5.2 3.5 32.9-11.3 50.7-23 46.9-30.9 78.3-77.8 89.3-133.5 2.8-13.9 3.5-22.1 3.5-39.2 0-20.8-.9-28.7-5.4-47.5-4.3-18-12.5-39.7-18.7-49.7-1.3-2.1-2.3-4-2.3-4.3 0-1.3-13.2-20.6-18.7-27.5-7.5-9.2-18.8-20.8-26.8-27.5-3.3-2.8-6.6-5.5-7.3-6.2-3.1-2.9-24.5-16.3-32.7-20.5-8.1-4.1-23.5-10.6-29.2-12.3-1.6-.4-2.3-.2-2.4.7z"/></svg>